# Blender v3.6.1 OBJ File: 'maribel_demo.blend'
# www.blender.org
o Floor_Cube.002
v -7.427698 -0.004167 7.427698
v -7.427698 -0.004167 -7.427698
v 7.427698 -0.004167 7.427698
v 7.427698 -0.004167 -7.427698
v -7.427698 -0.004167 0.436979
v 0.064718 -0.004167 7.427698
v 4.558948 -0.004167 7.427698
v -7.427698 -0.004167 4.501229
v -19.036230 -0.004167 0.436979
v -19.036230 -0.004167 4.501229
v 0.064718 -0.004167 21.654263
v 4.558948 -0.004167 21.654263
vt 1.368511 1.941240
vt 1.920593 1.941240
vt 1.920593 -0.917632
vt 1.727751 0.113576
vt -1.054868 0.847553
vt -1.054868 0.113576
vt 0.103648 -0.412606
vt 0.788054 2.100856
vt 0.103648 2.100856
vt -0.938279 -0.917632
vt -0.938279 0.585799
vt -0.938279 1.378050
vt -0.938279 1.941240
vt 0.491157 1.941240
vt 1.727751 0.847553
vt 0.788054 -0.412606
vn 0.0000 1.0000 0.0000
s off
f 7/1/1 3/2/1 4/3/1
f 9/4/1 8/5/1 5/6/1
f 11/7/1 7/8/1 6/9/1
f 4/3/1 2/10/1 5/11/1
f 8/12/1 1/13/1 6/14/1
f 4/3/1 5/11/1 6/14/1
f 5/11/1 8/12/1 6/14/1
f 4/3/1 6/14/1 7/1/1
f 9/4/1 10/15/1 8/5/1
f 11/7/1 12/16/1 7/8/1
