# Blender v3.6.1 OBJ File: 'maribel_demo.blend'
# www.blender.org
o Walls_Cube.003
v -7.500000 3.994098 7.500000
v -7.500000 3.994098 -7.500000
v 7.500000 3.994098 7.500000
v 7.500000 3.994098 -7.500000
v -7.500000 0.426898 7.500000
v -7.500000 0.426898 -7.500000
v 7.500000 0.426898 -7.500000
v 7.500000 0.426898 7.500000
v -7.500000 0.426898 0.388237
v 0.000000 3.994098 7.500000
v 0.000000 0.426898 7.500000
v -7.500000 3.994098 0.388237
v -7.500000 0.426898 4.545045
v -7.500000 3.994098 4.545045
v 4.603325 3.994098 7.500000
v 4.603325 0.426898 7.500000
v -19.108530 3.994098 4.545045
v -19.108530 3.994098 0.388237
v -19.108530 0.426898 4.545045
v -19.108530 0.426898 0.388237
v 4.603325 3.994098 21.726566
v 0.000000 3.994098 21.726566
v 4.603325 0.426898 21.726566
v 0.000000 0.426898 21.726566
v -0.500000 4.476017 0.500000
v -0.500000 4.476017 -0.500000
v 0.500000 4.476017 0.500000
v 0.500000 4.476017 -0.500000
v -0.500000 0.424497 0.500000
v -0.500000 0.424497 -0.500000
v 0.500000 0.424497 -0.500000
v 0.500000 0.424497 0.500000
vt 2.054238 -0.205125
vt 2.864472 1.205125
vt 2.864472 -0.205125
vt -1.027188 -0.205125
vt 0.513525 1.205125
vt 0.513525 -0.205125
vt -2.567900 -0.205125
vt -1.797544 1.205125
vt -1.797544 -0.205125
vt 2.054238 1.205125
vt 3.291435 -0.205125
vt 3.594950 1.205125
vt 3.594950 -0.205125
vt -0.499391 -0.205125
vt 0.808942 1.205125
vt 0.808942 -0.205125
vt 1.808954 1.205125
vt 0.810215 -0.205125
vt 0.810215 1.205125
vt -1.324716 -0.205125
vt -1.027188 1.205125
vt 2.864472 -0.205125
vt 3.291435 1.205125
vt 3.291435 -0.205125
vt 2.044221 -0.111057
vt 0.956191 1.299194
vt 0.956191 -0.111057
vt -1.797544 -0.205125
vt -1.324717 1.205125
vt -1.324716 -0.205125
vt -0.759931 1.205125
vt 0.431736 -0.205125
vt 0.431736 1.205125
vt 0.775640 1.205125
vt 0.644583 -0.069892
vt 0.775640 -0.069892
vt 0.644583 1.205125
vt 0.513525 -0.069892
vt 0.513525 1.205125
vt 0.382467 -0.069892
vt 0.382467 1.205125
vt 0.251410 -0.069892
vt -2.567900 1.205125
vt 3.291435 1.205125
vt -0.499391 1.205125
vt 1.808954 -0.205125
vt -1.324717 1.205125
vt 2.864472 1.205125
vt 2.044221 1.299194
vt -1.797544 1.205125
vt -0.759931 -0.205125
vt 0.251410 1.205125
vn 1.0000 0.0000 0.0000
vn -1.0000 0.0000 0.0000
vn 0.0000 0.0000 -1.0000
vn 0.0000 0.0000 1.0000
s off
f 6/1/1 12/2/1 9/3/1
f 8/4/2 4/5/2 7/6/2
f 5/7/3 10/8/3 11/9/3
f 6/1/4 4/5/4 2/10/4
f 13/11/1 1/12/1 5/13/1
f 23/14/2 15/15/2 16/16/2
f 18/17/4 9/18/4 12/19/4
f 16/20/3 3/21/3 8/4/3
f 20/22/1 17/23/1 19/24/1
f 19/25/3 14/26/3 13/27/3
f 24/28/3 21/29/3 23/30/3
f 22/31/1 11/32/1 10/33/1
f 25/34/2 30/35/2 29/36/2
f 26/37/3 31/38/3 30/35/3
f 28/39/1 32/40/1 31/38/1
f 27/41/4 29/42/4 32/40/4
f 6/1/1 2/10/1 12/2/1
f 8/4/2 3/21/2 4/5/2
f 5/7/3 1/43/3 10/8/3
f 6/1/4 7/6/4 4/5/4
f 13/11/1 14/44/1 1/12/1
f 23/14/2 21/45/2 15/15/2
f 18/17/4 20/46/4 9/18/4
f 16/20/3 15/47/3 3/21/3
f 20/22/1 18/48/1 17/23/1
f 19/25/3 17/49/3 14/26/3
f 24/28/3 22/50/3 21/29/3
f 22/31/1 24/51/1 11/32/1
f 25/34/2 26/37/2 30/35/2
f 26/37/3 28/39/3 31/38/3
f 28/39/1 27/41/1 32/40/1
f 27/41/4 25/52/4 29/42/4
