# Blender v3.6.1 OBJ File: 'skybox.blend'
# www.blender.org
mtllib skybox.mtl
o Cube
v -1.006871 -0.993082 1.000000
v -0.993082 1.006871 1.000000
v 0.993082 -1.006871 1.000000
v 1.006871 0.993082 1.000000
v -1.006871 -0.993082 -1.000000
v -0.993082 1.006871 -1.000000
v 0.993082 -1.006871 -1.000000
v 1.006871 0.993082 -1.000000
vt 0.500005 1.000000
vt 0.249997 0.666667
vt 0.249997 1.000000
vt 0.000117 0.333333
vt 0.249997 0.666667
vt 0.249997 0.333333
vt 0.750000 0.333333
vt 0.999981 0.666667
vt 0.999981 0.333333
vt 0.500005 0.333333
vt 0.249997 0.000000
vt 0.249997 0.333333
vt 0.500005 0.666667
vt 0.500005 0.333333
vt 0.750000 0.666667
vt 0.500005 0.666667
vt 0.000117 0.666667
vt 0.500005 0.000000
vn 0.0069 1.0000 -0.0000
vn -1.0000 0.0069 0.0000
vn 0.0000 -0.0000 1.0000
vn -0.0069 -1.0000 0.0000
vn -0.0000 0.0000 -1.0000
vn 1.0000 -0.0069 -0.0000
usemtl skybox
s off
f 3/1/1 5/2/1 1/3/1
f 8/4/2 3/5/2 4/6/2
f 6/7/3 7/8/3 8/9/3
f 8/10/4 2/11/4 6/12/4
f 4/6/5 1/13/5 2/14/5
f 2/14/6 5/15/6 6/7/6
f 3/1/1 7/16/1 5/2/1
f 8/4/2 7/17/2 3/5/2
f 6/7/3 5/15/3 7/8/3
f 8/10/4 4/18/4 2/11/4
f 4/6/5 3/5/5 1/13/5
f 2/14/6 1/13/6 5/15/6
